<svg id="visual" viewBox="0 0 1280 1024" width="1280" height="1024" xmlns="http://www.w3.org/2000/svg" xmlns:xlink="http://www.w3.org/1999/xlink" version="1.1"><path d="M0 151L128 151L128 184L256 184L256 139L384 139L384 142L512 142L512 134L640 134L640 144L768 144L768 135L896 135L896 170L1024 170L1024 142L1152 142L1152 167L1280 167L1280 181L1280 0L1280 0L1152 0L1152 0L1024 0L1024 0L896 0L896 0L768 0L768 0L640 0L640 0L512 0L512 0L384 0L384 0L256 0L256 0L128 0L128 0L0 0Z" fill="#ff94f5"></path><path d="M0 157L128 157L128 145L256 145L256 154L384 154L384 111L512 111L512 118L640 118L640 114L768 114L768 153L896 153L896 158L1024 158L1024 134L1152 134L1152 149L1280 149L1280 137L1280 0L1280 0L1152 0L1152 0L1024 0L1024 0L896 0L896 0L768 0L768 0L640 0L640 0L512 0L512 0L384 0L384 0L256 0L256 0L128 0L128 0L0 0Z" fill="#d27ad6"></path><path d="M0 85L128 85L128 115L256 115L256 110L384 110L384 105L512 105L512 130L640 130L640 83L768 83L768 128L896 128L896 112L1024 112L1024 93L1152 93L1152 125L1280 125L1280 116L1280 0L1280 0L1152 0L1152 0L1024 0L1024 0L896 0L896 0L768 0L768 0L640 0L640 0L512 0L512 0L384 0L384 0L256 0L256 0L128 0L128 0L0 0Z" fill="#a861b6"></path><path d="M0 83L128 83L128 84L256 84L256 90L384 90L384 78L512 78L512 100L640 100L640 90L768 90L768 99L896 99L896 68L1024 68L1024 86L1152 86L1152 104L1280 104L1280 94L1280 0L1280 0L1152 0L1152 0L1024 0L1024 0L896 0L896 0L768 0L768 0L640 0L640 0L512 0L512 0L384 0L384 0L256 0L256 0L128 0L128 0L0 0Z" fill="#7f4996"></path><path d="M0 76L128 76L128 38L256 38L256 46L384 46L384 64L512 64L512 35L640 35L640 75L768 75L768 35L896 35L896 40L1024 40L1024 37L1152 37L1152 62L1280 62L1280 52L1280 0L1280 0L1152 0L1152 0L1024 0L1024 0L896 0L896 0L768 0L768 0L640 0L640 0L512 0L512 0L384 0L384 0L256 0L256 0L128 0L128 0L0 0Z" fill="#593276"></path><path d="M0 16L128 16L128 21L256 21L256 47L384 47L384 12L512 12L512 16L640 16L640 49L768 49L768 27L896 27L896 15L1024 15L1024 11L1152 11L1152 31L1280 31L1280 15L1280 0L1280 0L1152 0L1152 0L1024 0L1024 0L896 0L896 0L768 0L768 0L640 0L640 0L512 0L512 0L384 0L384 0L256 0L256 0L128 0L128 0L0 0Z" fill="#351c57"></path></svg>